<?xml version="1.0" standalone="no"?>
<!DOCTYPE svg PUBLIC "-//W3C//DTD SVG 20010904//EN"
 "http://www.w3.org/TR/2001/REC-SVG-20010904/DTD/svg10.dtd">
<svg version="1.0" xmlns="http://www.w3.org/2000/svg"
 width="512.000000pt" height="512.000000pt" viewBox="0 0 512.000000 512.000000"
 preserveAspectRatio="xMidYMid meet">

<g transform="translate(0.000000,512.000000) scale(0.100000,-0.100000)"
fill="#000000" stroke="none">
<path d="M2500 5105 c-158 -32 -268 -92 -386 -210 -77 -76 -98 -105 -137 -185
-63 -129 -78 -190 -84 -352 l-6 -138 527 0 526 0 0 -300 0 -300 -1471 0 -1472
0 6 -137 c10 -243 69 -386 222 -538 101 -101 190 -155 315 -191 l74 -22 21
-68 c78 -252 274 -447 516 -514 l63 -17 21 -69 c31 -98 67 -171 126 -249 l51
-67 -153 -157 c-85 -86 -403 -406 -707 -712 l-553 -555 83 -80 c183 -175 328
-238 553 -238 145 0 215 16 338 78 l88 44 85 -43 c234 -120 504 -108 737 31
43 26 152 127 362 335 l300 297 305 5 c322 5 425 16 611 62 712 180 1296 710
1533 1394 90 260 121 447 120 736 -1 318 -14 384 -219 1060 -171 569 -208 648
-374 816 -155 155 -360 258 -575 288 -119 17 -1362 13 -1446 -4z"/>
</g>
</svg>
